<svg width="308" height="308" viewBox="0 0 308 308" fill="none" xmlns="http://www.w3.org/2000/svg">
<path d="M182.46 61.4C191.68 61.4 200.92 61.18 210.13 61.43C213.63 61.52 217.13 61.8 220.59 62.26L218.03 61.92C224.976 62.8237 231.774 64.6323 238.25 67.3L235.95 66.33C241 68.4374 245.758 71.1831 250.11 74.5L248.16 73C251.89 75.88 255.26 79.2 258.15 82.93L256.65 80.98C259.288 84.4046 261.479 88.1515 263.17 92.13L262.2 89.83C263.837 93.7132 264.957 97.7949 265.53 101.97L265.18 99.42C265.72 103.475 265.72 107.585 265.18 111.64L265.53 109.09C264.989 113.027 263.937 116.876 262.4 120.54L263.37 118.24C261.806 121.93 259.776 125.405 257.33 128.58L258.83 126.63C256.174 130.047 253.096 133.115 249.67 135.76L251.62 134.26C247.471 137.423 242.934 140.041 238.12 142.05L240.42 141.08C233.816 143.791 226.883 145.62 219.8 146.52L222.36 146.17C216.63 146.93 210.89 147.09 205.12 147.09H182.46C179.92 147.116 177.492 148.137 175.697 149.934C173.902 151.731 172.883 154.16 172.86 156.7C172.883 159.24 173.902 161.669 175.697 163.466C177.492 165.263 179.92 166.284 182.46 166.31C191.38 166.31 200.29 166.39 209.21 166.31C225.01 166.17 241.22 163.04 255.03 155.06C265.63 148.94 274.97 139.56 279.85 128.22C281.15 125.2 282.35 122.19 283.15 118.99C283.911 115.802 284.416 112.558 284.66 109.29C285.14 103.59 284.51 97.73 283.19 92.18C280.41 80.53 273.59 69.7 264.66 61.8C253.93 52.32 240.49 46.34 226.43 43.89C219.782 42.7387 213.047 42.1633 206.3 42.17H182.46C179.92 42.1961 177.492 43.2172 175.697 45.0141C173.902 46.811 172.883 49.2402 172.86 51.78C172.883 54.3197 173.902 56.749 175.697 58.5459C177.492 60.3427 179.92 61.3639 182.46 61.39V61.4ZM124.48 147.32C105.817 147.383 87.5861 152.948 72.07 163.32C56.5129 173.808 44.0039 188.221 35.81 205.1C28.0706 221.092 24.0405 238.624 24.02 256.39C24.0461 258.931 25.0687 261.361 26.8677 263.156C28.6667 264.952 31.0985 265.969 33.64 265.99C36.178 265.964 38.6047 264.944 40.3995 263.149C42.1942 261.355 43.214 258.928 43.24 256.39C43.25 251.45 43.58 246.53 44.24 241.64L43.89 244.19C45.17 234.89 47.64 225.77 51.29 217.11L50.32 219.41C53.72 211.43 58.09 203.88 63.39 197.01L61.89 198.96C66.8451 192.54 72.5943 186.774 79 181.8L77.05 183.3C83.06 178.68 89.62 174.81 96.6 171.86L94.3 172.82C101.193 169.918 108.439 167.938 115.85 166.93L113.29 167.27C117 166.78 120.73 166.53 124.48 166.53C127.02 166.504 129.448 165.483 131.243 163.686C133.038 161.889 134.057 159.46 134.08 156.92C134.057 154.38 133.038 151.951 131.243 150.154C129.448 148.357 127.02 147.336 124.48 147.31V147.32ZM143.74 51.78V256.38C143.761 258.923 144.78 261.356 146.577 263.156C148.375 264.955 150.807 265.976 153.35 266C155.891 265.977 158.322 264.956 160.119 263.159C161.917 261.362 162.937 258.931 162.96 256.39V51.78C162.937 49.2402 161.918 46.811 160.123 45.0141C158.328 43.2172 155.9 42.1961 153.36 42.17C150.817 42.1908 148.384 43.2097 146.584 45.0072C144.785 46.8046 143.764 49.2368 143.74 51.78Z" fill="white"/>
<path d="M24 51.7799C24.02 72.0199 28.76 92.0799 38.03 110.08C46.5657 126.709 59.2435 140.858 74.84 151.16C89.6035 160.779 106.83 165.932 124.45 166C126.991 165.976 129.422 164.956 131.219 163.159C133.017 161.362 134.037 158.931 134.06 156.39C134.037 153.85 133.018 151.421 131.223 149.624C129.428 147.827 127 146.806 124.46 146.78C120.89 146.78 117.34 146.54 113.82 146.07L116.37 146.41C109.298 145.446 102.382 143.56 95.8 140.8L98.1 141.76C91.1491 138.81 84.6083 134.975 78.64 130.35L80.59 131.85C74.1617 126.841 68.3867 121.046 63.4 114.6L64.9 116.55C59.2543 109.197 54.5792 101.147 50.99 92.5999L51.96 94.8999C48.0206 85.4817 45.3344 75.5872 43.97 65.4699L44.32 68.0299C43.5997 62.6431 43.2356 57.2147 43.23 51.7799C43.204 49.2419 42.1842 46.8152 40.3894 45.0205C38.5947 43.2257 36.168 42.206 33.63 42.1799C31.0885 42.1981 28.6556 43.2131 26.8547 45.0065C25.0538 46.7999 24.0288 49.2285 24 51.7699V51.7799ZM287 256.39C286.97 236.84 281.89 217.39 272.18 200.41C262.871 184.148 249.484 170.593 233.34 161.08C217.889 152.085 200.338 147.329 182.46 147.29C179.92 147.316 177.492 148.337 175.697 150.134C173.902 151.931 172.883 154.36 172.86 156.9C172.883 159.44 173.902 161.869 175.697 163.666C177.492 165.463 179.92 166.484 182.46 166.51C186.56 166.51 190.66 166.79 194.72 167.34L192.17 166.99C200.16 168.09 207.97 170.24 215.4 173.37L213.1 172.4C220.493 175.548 227.456 179.624 233.82 184.53L231.87 183.03C238.444 188.13 244.347 194.04 249.44 200.62L247.94 198.67C253.26 205.57 257.66 213.15 261.06 221.17L260.09 218.87C263.594 227.244 265.981 236.043 267.19 245.04L266.86 242.49C267.46 247.09 267.77 251.74 267.78 256.39C267.803 258.93 268.822 261.359 270.617 263.156C272.412 264.953 274.84 265.974 277.38 266C279.923 265.979 282.356 264.96 284.156 263.163C285.955 261.365 286.976 258.933 287 256.39Z" fill="#F15A29"/>
</svg>
